<?xml version="1.0" encoding="UTF-8" standalone="no"?>
<!-- Created with Inkscape (http://www.inkscape.org/) -->

<svg
   width="866.02899"
   height="1000"
   viewBox="0 0 866.02899 1000"
   version="1.1"
   id="svg1"
   xml:space="preserve"
   inkscape:version="1.4.2 (ebf0e940d0, 2025-05-08)"
   sodipodi:docname="logo.svg"
   inkscape:export-filename="logo.png"
   inkscape:export-xdpi="96"
   inkscape:export-ydpi="96"
   xmlns:inkscape="http://www.inkscape.org/namespaces/inkscape"
   xmlns:sodipodi="http://sodipodi.sourceforge.net/DTD/sodipodi-0.dtd"
   xmlns="http://www.w3.org/2000/svg"
   xmlns:svg="http://www.w3.org/2000/svg"><sodipodi:namedview
     id="namedview1"
     pagecolor="#505050"
     bordercolor="#eeeeee"
     borderopacity="1"
     inkscape:showpageshadow="0"
     inkscape:pageopacity="0"
     inkscape:pagecheckerboard="0"
     inkscape:deskcolor="#505050"
     inkscape:document-units="px"
     showguides="true"
     inkscape:zoom="0.5070922"
     inkscape:cx="459.48252"
     inkscape:cy="594.56644"
     inkscape:window-width="1920"
     inkscape:window-height="1011"
     inkscape:window-x="0"
     inkscape:window-y="0"
     inkscape:window-maximized="1"
     inkscape:current-layer="layer2"><sodipodi:guide
       position="866.02899,750"
       orientation="0.49999845,-0.8660263"
       id="guide1"
       inkscape:locked="false"
       inkscape:label=""
       inkscape:color="rgb(0,134,229)" /><sodipodi:guide
       position="-2.7269562e-07,750"
       orientation="0.49999845,0.8660263"
       id="guide2"
       inkscape:locked="false" /><sodipodi:guide
       position="433.0145,1000"
       orientation="1,0"
       id="guide3"
       inkscape:locked="false" /><sodipodi:guide
       position="866.02899,750"
       orientation="0,-1"
       id="guide4"
       inkscape:locked="false" /><sodipodi:guide
       position="866.02899,249.99999"
       orientation="0,-1"
       id="guide5"
       inkscape:locked="false" /></sodipodi:namedview><defs
     id="defs1"><clipPath
       clipPathUnits="userSpaceOnUse"
       id="clipPath11"><path
         sodipodi:type="star"
         style="display:inline;fill:#d80000;stroke-width:2.5"
         id="path11"
         inkscape:flatsided="true"
         sodipodi:sides="6"
         sodipodi:cx="405.25177"
         sodipodi:cy="288.9021"
         sodipodi:r1="210.85258"
         sodipodi:r2="182.6037"
         sodipodi:arg1="0.52359878"
         sodipodi:arg2="1.0471976"
         inkscape:rounded="0"
         inkscape:randomized="0"
         d="M 587.85546,394.32839 405.25177,499.75468 222.64807,394.32839 222.64808,183.47581 405.25177,78.049515 587.85547,183.47581 Z"
         transform="matrix(0.98941672,0,0,0.98941672,43.325623,134.15766)" /></clipPath><filter
       style="color-interpolation-filters:sRGB;"
       inkscape:label="Blur"
       id="filter6"
       x="-1.1246565"
       y="-1.0649259"
       width="3.249313"
       height="3.1298517"><feGaussianBlur
         stdDeviation="10 10"
         result="fbSourceGraphic"
         id="feGaussianBlur6" /><feColorMatrix
         result="fbSourceGraphicAlpha"
         in="fbSourceGraphic"
         values="0 0 0 -1 0 0 0 0 -1 0 0 0 0 -1 0 0 0 0 1 0"
         id="feColorMatrix12" /><feGaussianBlur
         id="feGaussianBlur12"
         stdDeviation="21.4196 19.7509"
         result="blur"
         in="fbSourceGraphic" /></filter><filter
       style="color-interpolation-filters:sRGB;"
       inkscape:label="Blur"
       id="filter6-9"
       x="-1.2253901"
       y="-1.212214"
       width="3.4507803"
       height="3.4244281"><feGaussianBlur
         stdDeviation="10 10"
         result="fbSourceGraphic"
         id="feGaussianBlur6-1" /><feColorMatrix
         result="fbSourceGraphicAlpha"
         in="fbSourceGraphic"
         values="0 0 0 -1 0 0 0 0 -1 0 0 0 0 -1 0 0 0 0 1 0"
         id="feColorMatrix10" /><feGaussianBlur
         id="feGaussianBlur10"
         stdDeviation="24.2338 23.8657"
         result="blur"
         in="fbSourceGraphic" /></filter><filter
       style="color-interpolation-filters:sRGB;"
       inkscape:label="Blur"
       id="filter6-9-3"
       x="-1.5709741"
       y="-1.5253894"
       width="4.1419481"
       height="4.0507788"><feGaussianBlur
         stdDeviation="10 10"
         result="fbSourceGraphic"
         id="feGaussianBlur6-1-6" /><feColorMatrix
         result="fbSourceGraphicAlpha"
         in="fbSourceGraphic"
         values="0 0 0 -1 0 0 0 0 -1 0 0 0 0 -1 0 0 0 0 1 0"
         id="feColorMatrix6" /><feGaussianBlur
         id="feGaussianBlur7"
         stdDeviation="33.8884 32.6149"
         result="blur"
         in="fbSourceGraphic" /></filter><filter
       style="color-interpolation-filters:sRGB;"
       inkscape:label="Blur"
       id="filter6-1"
       x="-1.4050332"
       y="-1.4819382"
       width="3.8100664"
       height="3.9638763"><feGaussianBlur
         stdDeviation="10 10"
         result="fbSourceGraphic"
         id="feGaussianBlur6-8" /><feColorMatrix
         result="fbSourceGraphicAlpha"
         in="fbSourceGraphic"
         values="0 0 0 -1 0 0 0 0 -1 0 0 0 0 -1 0 0 0 0 1 0"
         id="feColorMatrix9" /><feGaussianBlur
         id="feGaussianBlur9"
         stdDeviation="29.2525 31.401"
         result="blur"
         in="fbSourceGraphic" /></filter><filter
       style="color-interpolation-filters:sRGB"
       inkscape:label="Blur"
       id="filter6-9-2"
       x="-0.35794744"
       y="-0.35794744"
       width="1.7158949"
       height="1.7158949"><feGaussianBlur
         stdDeviation="10 10"
         result="blur"
         id="feGaussianBlur6-1-3" /></filter><filter
       style="color-interpolation-filters:sRGB;"
       inkscape:label="Blur"
       id="filter6-1-2"
       x="-0.9255769"
       y="-0.85183974"
       width="2.8511538"
       height="2.7036795"><feGaussianBlur
         stdDeviation="10 10"
         result="fbSourceGraphic"
         id="feGaussianBlur6-8-8" /><feColorMatrix
         result="fbSourceGraphicAlpha"
         in="fbSourceGraphic"
         values="0 0 0 -1 0 0 0 0 -1 0 0 0 0 -1 0 0 0 0 1 0"
         id="feColorMatrix11" /><feGaussianBlur
         id="feGaussianBlur11"
         stdDeviation="15.8579 13.7979"
         result="blur"
         in="fbSourceGraphic" /></filter><filter
       style="color-interpolation-filters:sRGB;"
       inkscape:label="Blur"
       id="filter6-12"
       x="-2.3595215"
       y="-2.5889587"
       width="5.7190429"
       height="6.1779173"><feGaussianBlur
         stdDeviation="10 10"
         result="fbSourceGraphic"
         id="feGaussianBlur6-9" /><feColorMatrix
         result="fbSourceGraphicAlpha"
         in="fbSourceGraphic"
         values="0 0 0 -1 0 0 0 0 -1 0 0 0 0 -1 0 0 0 0 1 0"
         id="feColorMatrix8" /><feGaussianBlur
         id="feGaussianBlur8"
         stdDeviation="55.9181 62.3279"
         result="blur"
         in="fbSourceGraphic" /></filter><linearGradient
       x1="0"
       y1="0"
       x2="1"
       y2="0"
       gradientUnits="userSpaceOnUse"
       gradientTransform="matrix(-1.014e-4,2320.86,2320.86,1.014e-4,1763.52,-458.22)"
       spreadMethod="pad"
       id="linearGradient403"><stop
         style="stop-opacity:1;stop-color:#fcfbf4"
         offset="0"
         id="stop400" /><stop
         style="stop-opacity:1;stop-color:#fcfbf4"
         offset="0.0748539"
         id="stop401" /><stop
         style="stop-opacity:1;stop-color:#f6f6d8"
         offset="0.660781"
         id="stop402" /><stop
         style="stop-opacity:1;stop-color:#f5f5cb"
         offset="1"
         id="stop403" /></linearGradient><clipPath
       clipPathUnits="userSpaceOnUse"
       id="clipPath403"><path
         d="m 2637.91,1220.74 c -4.15,0 -3.57,5.65 0.54,5.65 4.18,0 3.62,-5.65 -0.54,-5.65"
         transform="translate(0,-2.5000001e-5)"
         id="path403" /></clipPath><clipPath
       clipPathUnits="userSpaceOnUse"
       id="clipPath407"><path
         d="m 2817.18,1093.41 c -0.88,0 -1.56,0.23 -2.06,0.62 1.63,0.14 3.22,0.29 4.76,0.45 -0.61,-0.64 -1.52,-1.07 -2.7,-1.07"
         transform="translate(0,-2.5000001e-5)"
         id="path407" /></clipPath><clipPath
       clipPathUnits="userSpaceOnUse"
       id="clipPath439"><path
         d="m 3209.45,1079.15 c -4.71,0 -4.08,6.43 0.61,6.43 4.69,0 4.05,-6.43 -0.61,-6.43"
         transform="translate(0,-2.5000001e-5)"
         id="path439" /></clipPath><clipPath
       clipPathUnits="userSpaceOnUse"
       id="clipPath467"><path
         d="m 3437.64,1067.68 c -0.38,0 -0.86,0.08 -1.44,0.25 v 0 c -1.65,0.48 -5.97,1.67 -5.81,3.66 0.23,2.42 1.17,3.32 2.35,3.32 1.67,0 3.82,-1.81 5.09,-3.61 1.27,-1.81 1.66,-3.62 -0.19,-3.62 m -0.72,0.04 c 0,0 -0.23,0.06 -0.44,0.12 -0.22,0.06 -0.43,0.12 -0.42,0.12 0,0 0.04,-0.01 0.14,-0.03 v 0 c 0.55,-0.16 0.73,-0.21 0.72,-0.21"
         transform="translate(0,-2.5000001e-5)"
         id="path467" /></clipPath><clipPath
       clipPathUnits="userSpaceOnUse"
       id="clipPath471"><path
         d="m 3441.95,1199.83 c -4.88,0 -4.22,6.67 0.61,6.67 4.91,0 4.24,-6.67 -0.61,-6.67"
         transform="translate(0,-2.5000001e-5)"
         id="path471" /></clipPath><clipPath
       clipPathUnits="userSpaceOnUse"
       id="clipPath475"><path
         d="m 2551.05,1348.64 c -2.98,0 -2.55,4.02 0.36,4.02 2.95,0 2.52,-4.02 -0.36,-4.02"
         transform="translate(0,-2.5000001e-5)"
         id="path475" /></clipPath><clipPath
       clipPathUnits="userSpaceOnUse"
       id="clipPath479"><path
         d="m 3427.76,1336.52 c -4.57,0 -3.93,6.27 0.58,6.27 4.6,0 3.95,-6.27 -0.58,-6.27"
         transform="translate(0,-2.5000001e-5)"
         id="path479" /></clipPath><clipPath
       clipPathUnits="userSpaceOnUse"
       id="clipPath483"><path
         d="m 3221.94,1355.98 c -3.66,0 -3.16,5.02 0.45,5.02 3.68,0 3.17,-5.02 -0.45,-5.02"
         transform="translate(0,-2.5000001e-5)"
         id="path483" /></clipPath><linearGradient
       x1="0"
       y1="0"
       x2="1"
       y2="0"
       gradientUnits="userSpaceOnUse"
       gradientTransform="matrix(1312.92,0,0,-1312.92,2108.83,1150.47)"
       spreadMethod="pad"
       id="linearGradient750"><stop
         style="stop-opacity:1;stop-color:#f6f7d2"
         offset="0"
         id="stop748" /><stop
         style="stop-opacity:1;stop-color:#eaf0d2"
         offset="0.807685"
         id="stop749" /><stop
         style="stop-opacity:1;stop-color:#eaf0d2"
         offset="1"
         id="stop750" /></linearGradient><clipPath
       clipPathUnits="userSpaceOnUse"
       id="clipPath750"><path
         d="m 2457.38,1191.27 c -1.33,0.15 -2.71,0.3 -4.14,0.45 -1.73,1.61 -1.25,4.84 1.89,4.84 3.43,0 4.42,-3.95 2.25,-5.29"
         transform="translate(0,-2.5000001e-5)"
         id="path750" /></clipPath><clipPath
       clipPathUnits="userSpaceOnUse"
       id="clipPath753"><path
         d="m 2638.45,1134.4 c -4.11,0 -4.69,5.64 -0.54,5.64 4.16,0 4.72,-5.64 0.54,-5.64"
         transform="translate(0,-2.5000001e-5)"
         id="path753" /></clipPath><clipPath
       clipPathUnits="userSpaceOnUse"
       id="clipPath754"><path
         d="m 2577.36,1113.52 c -7.17,0 -6.19,9.83 0.95,9.83 7.2,0 6.21,-9.83 -0.95,-9.83"
         transform="matrix(0.03311236,0,0,-0.03968254,-84.863677,44.924602)"
         id="path754" /></clipPath><clipPath
       clipPathUnits="userSpaceOnUse"
       id="clipPath755"><path
         d="m 2455.13,1164.22 c -4.18,0 -3.64,5.72 0.53,5.72 4.18,0 3.6,-5.72 -0.53,-5.72"
         transform="matrix(0.03968222,0,0,-0.04716981,-96.939706,55.476414)"
         id="path755" /></clipPath><clipPath
       clipPathUnits="userSpaceOnUse"
       id="clipPath756"><path
         d="m 2815.12,1094.03 c -2.02,1.55 -0.91,5.51 2.62,5.51 3.31,0 3.85,-3.31 2.14,-5.06 -1.54,-0.16 -3.13,-0.31 -4.76,-0.45"
         transform="matrix(0.04950446,0,0,-0.04950495,-139.00358,54.856435)"
         id="path756" /></clipPath><clipPath
       clipPathUnits="userSpaceOnUse"
       id="clipPath757"><path
         d="m 3291.41,1099.19 67.1,39.71 c 105.76,-12.91 59.96,-29.84 -0.65,-35.7 -20.72,-1.98 -43.07,-3.21 -66.45,-4.01"
         transform="matrix(0.0053135,0,0,-0.01845018,-17.443677,21.164206)"
         id="path757" /></clipPath><clipPath
       clipPathUnits="userSpaceOnUse"
       id="clipPath781"><path
         d="m 3288.02,1099.08 69.32,39.96 c 0.39,-0.04 0.79,-0.09 1.17,-0.14 l -67.1,-39.71 c -1.13,-0.04 -2.25,-0.08 -3.39,-0.11"
         transform="matrix(0.01216542,0,0,-0.01845018,-39.937858,21.164206)"
         id="path781" /></clipPath><clipPath
       clipPathUnits="userSpaceOnUse"
       id="clipPath431"><path
         d="m 3410.58,693.551 c -0.81,0 -3.26,1.39 -4.75,2.789 -1.49,1.398 -2.03,2.801 0.97,2.801 0.54,0 1.19,-0.051 1.98,-0.153 1.94,-0.316 7.66,-4.258 2,-4.957 0.16,-0.34 0.07,-0.48 -0.2,-0.48"
         transform="translate(0,-2.5000001e-5)"
         id="path431" /></clipPath><clipPath
       clipPathUnits="userSpaceOnUse"
       id="clipPath459"><path
         d="m 3330.28,636.641 c -2.49,0 -2.18,3.418 0.32,3.418 2.51,0 2.18,-3.418 -0.32,-3.418"
         transform="translate(0,-2.5000001e-5)"
         id="path459" /></clipPath><clipPath
       clipPathUnits="userSpaceOnUse"
       id="clipPath511"><path
         d="m 3356.84,758.238 c -3.64,0 -3.13,4.961 0.46,4.961 3.67,0 3.14,-4.961 -0.46,-4.961"
         transform="translate(0,-2.5000001e-5)"
         id="path511" /></clipPath><clipPath
       clipPathUnits="userSpaceOnUse"
       id="clipPath431-6"><path
         d="m 3410.58,693.551 c -0.81,0 -3.26,1.39 -4.75,2.789 -1.49,1.398 -2.03,2.801 0.97,2.801 0.54,0 1.19,-0.051 1.98,-0.153 1.94,-0.316 7.66,-4.258 2,-4.957 0.16,-0.34 0.07,-0.48 -0.2,-0.48"
         transform="translate(0,-2.5000001e-5)"
         id="path431-9" /></clipPath><clipPath
       clipPathUnits="userSpaceOnUse"
       id="clipPath459-3"><path
         d="m 3330.28,636.641 c -2.49,0 -2.18,3.418 0.32,3.418 2.51,0 2.18,-3.418 -0.32,-3.418"
         transform="translate(0,-2.5000001e-5)"
         id="path459-7" /></clipPath><clipPath
       clipPathUnits="userSpaceOnUse"
       id="clipPath511-4"><path
         d="m 3356.84,758.238 c -3.64,0 -3.13,4.961 0.46,4.961 3.67,0 3.14,-4.961 -0.46,-4.961"
         transform="translate(0,-2.5000001e-5)"
         id="path511-5" /></clipPath></defs><g
     inkscape:groupmode="layer"
     id="layer2"
     inkscape:label="Background"
     style="display:inline"><path
       sodipodi:type="star"
       style="display:inline;fill:#161618;fill-opacity:1;stroke:none;stroke-width:2.10852;stroke-dasharray:none"
       id="path2-5-4"
       inkscape:flatsided="true"
       sodipodi:sides="6"
       sodipodi:cx="405.25177"
       sodipodi:cy="288.9021"
       sodipodi:r1="210.85258"
       sodipodi:r2="182.6037"
       sodipodi:arg1="0.52359878"
       sodipodi:arg2="1.0471976"
       inkscape:rounded="0"
       inkscape:randomized="0"
       d="M 587.85546,394.32839 405.25177,499.75468 222.64807,394.32839 222.64808,183.47581 405.25177,78.049515 587.85547,183.47581 Z"
       transform="matrix(2.3713348,0,0,2.371325,-527.97313,-185.08077)"
       inkscape:label="1" /></g><g
     inkscape:groupmode="layer"
     id="layer1"
     inkscape:label="Guides | 10px"
     style="display:none"
     sodipodi:insensitive="true"><path
       sodipodi:type="star"
       style="display:inline;fill:none;fill-opacity:1;stroke:#ff00ff;stroke-width:0.422192;stroke-dasharray:none;stroke-opacity:1"
       id="path2-5-5"
       inkscape:flatsided="true"
       sodipodi:sides="6"
       sodipodi:cx="405.25177"
       sodipodi:cy="288.9021"
       sodipodi:r1="210.85258"
       sodipodi:r2="182.6037"
       sodipodi:arg1="0.52359878"
       sodipodi:arg2="1.0471976"
       inkscape:rounded="0"
       inkscape:randomized="0"
       d="M 587.85546,394.32839 405.25177,499.75468 222.64807,394.32839 222.64808,183.47581 405.25177,78.049515 587.85547,183.47581 Z"
       transform="matrix(2.3685957,0,0,2.3685868,-526.86328,-184.2897)" /><path
       sodipodi:type="star"
       style="display:inline;fill:none;fill-opacity:1;stroke:#ff00ff;stroke-width:0.426462;stroke-dasharray:none;stroke-opacity:1"
       id="path2-5-5-2"
       inkscape:flatsided="true"
       sodipodi:sides="6"
       sodipodi:cx="405.25177"
       sodipodi:cy="288.9021"
       sodipodi:r1="210.85258"
       sodipodi:r2="182.6037"
       sodipodi:arg1="0.52359878"
       sodipodi:arg2="1.0471976"
       inkscape:rounded="0"
       inkscape:randomized="0"
       d="M 587.85546,394.32839 405.25177,499.75468 222.64807,394.32839 222.64808,183.47581 405.25177,78.049515 587.85547,183.47581 Z"
       transform="matrix(2.3448824,0,0,2.3448736,-517.25343,-177.43891)" /><path
       sodipodi:type="star"
       style="display:inline;fill:none;fill-opacity:1;stroke:#ff00ff;stroke-width:0.430819;stroke-dasharray:none;stroke-opacity:1"
       id="path2-5-5-2-7"
       inkscape:flatsided="true"
       sodipodi:sides="6"
       sodipodi:cx="405.25177"
       sodipodi:cy="288.9021"
       sodipodi:r1="210.85258"
       sodipodi:r2="182.6037"
       sodipodi:arg1="0.52359878"
       sodipodi:arg2="1.0471976"
       inkscape:rounded="0"
       inkscape:randomized="0"
       d="M 587.85546,394.32839 405.25177,499.75468 222.64807,394.32839 222.64808,183.47581 405.25177,78.049515 587.85547,183.47581 Z"
       transform="matrix(2.321169,0,0,2.3211603,-507.64353,-170.58808)" /><path
       sodipodi:type="star"
       style="display:inline;fill:none;fill-opacity:1;stroke:#ff00ff;stroke-width:0.435266;stroke-dasharray:none;stroke-opacity:1"
       id="path2-5-5-2-7-6"
       inkscape:flatsided="true"
       sodipodi:sides="6"
       sodipodi:cx="405.25177"
       sodipodi:cy="288.9021"
       sodipodi:r1="210.85258"
       sodipodi:r2="182.6037"
       sodipodi:arg1="0.52359878"
       sodipodi:arg2="1.0471976"
       inkscape:rounded="0"
       inkscape:randomized="0"
       d="M 587.85546,394.32839 405.25177,499.75468 222.64807,394.32839 222.64808,183.47581 405.25177,78.049515 587.85547,183.47581 Z"
       transform="matrix(2.2974557,0,0,2.2974471,-498.03367,-163.73729)" /><path
       sodipodi:type="star"
       style="display:inline;fill:none;fill-opacity:1;stroke:#ff00ff;stroke-width:0.439805;stroke-dasharray:none;stroke-opacity:1"
       id="path2-5-5-2-7-6-6"
       inkscape:flatsided="true"
       sodipodi:sides="6"
       sodipodi:cx="405.25177"
       sodipodi:cy="288.9021"
       sodipodi:r1="210.85258"
       sodipodi:r2="182.6037"
       sodipodi:arg1="0.52359878"
       sodipodi:arg2="1.0471976"
       inkscape:rounded="0"
       inkscape:randomized="0"
       d="M 587.85546,394.32839 405.25177,499.75468 222.64807,394.32839 222.64808,183.47581 405.25177,78.049515 587.85547,183.47581 Z"
       transform="matrix(2.2737423,0,0,2.2737338,-488.42378,-156.88647)" /><path
       sodipodi:type="star"
       style="display:inline;fill:none;fill-opacity:1;stroke:#ff00ff;stroke-width:0.44444;stroke-dasharray:none;stroke-opacity:1"
       id="path2-5-5-2-7-6-6-9"
       inkscape:flatsided="true"
       sodipodi:sides="6"
       sodipodi:cx="405.25177"
       sodipodi:cy="288.9021"
       sodipodi:r1="210.85258"
       sodipodi:r2="182.6037"
       sodipodi:arg1="0.52359878"
       sodipodi:arg2="1.0471976"
       inkscape:rounded="0"
       inkscape:randomized="0"
       d="M 587.85546,394.32839 405.25177,499.75468 222.64807,394.32839 222.64808,183.47581 405.25177,78.049515 587.85547,183.47581 Z"
       transform="matrix(2.250029,0,0,2.2500206,-478.81392,-150.03568)" /><path
       sodipodi:type="star"
       style="display:inline;fill:none;fill-opacity:1;stroke:#ff00ff;stroke-width:0.449174;stroke-dasharray:none;stroke-opacity:1"
       id="path2-5-5-2-7-6-6-9-3"
       inkscape:flatsided="true"
       sodipodi:sides="6"
       sodipodi:cx="405.25177"
       sodipodi:cy="288.9021"
       sodipodi:r1="210.85258"
       sodipodi:r2="182.6037"
       sodipodi:arg1="0.52359878"
       sodipodi:arg2="1.0471976"
       inkscape:rounded="0"
       inkscape:randomized="0"
       d="M 587.85546,394.32839 405.25177,499.75468 222.64807,394.32839 222.64808,183.47581 405.25177,78.049515 587.85547,183.47581 Z"
       transform="matrix(2.2263156,0,0,2.2263073,-469.20402,-143.18485)" /><path
       sodipodi:type="star"
       style="display:inline;fill:none;fill-opacity:1;stroke:#ff00ff;stroke-width:0.45401;stroke-dasharray:none;stroke-opacity:1"
       id="path2-5-5-2-7-6-6-9-3-2"
       inkscape:flatsided="true"
       sodipodi:sides="6"
       sodipodi:cx="405.25177"
       sodipodi:cy="288.9021"
       sodipodi:r1="210.85258"
       sodipodi:r2="182.6037"
       sodipodi:arg1="0.52359878"
       sodipodi:arg2="1.0471976"
       inkscape:rounded="0"
       inkscape:randomized="0"
       d="M 587.85546,394.32839 405.25177,499.75468 222.64807,394.32839 222.64808,183.47581 405.25177,78.049515 587.85547,183.47581 Z"
       transform="matrix(2.2026023,0,0,2.2025941,-459.59417,-136.33406)" /><path
       sodipodi:type="star"
       style="display:inline;fill:none;fill-opacity:1;stroke:#ff00ff;stroke-width:0.458951;stroke-dasharray:none;stroke-opacity:1"
       id="path2-5-5-2-7-6-6-9-3-2-7"
       inkscape:flatsided="true"
       sodipodi:sides="6"
       sodipodi:cx="405.25177"
       sodipodi:cy="288.9021"
       sodipodi:r1="210.85258"
       sodipodi:r2="182.6037"
       sodipodi:arg1="0.52359878"
       sodipodi:arg2="1.0471976"
       inkscape:rounded="0"
       inkscape:randomized="0"
       d="M 587.85546,394.32839 405.25177,499.75468 222.64807,394.32839 222.64808,183.47581 405.25177,78.049515 587.85547,183.47581 Z"
       transform="matrix(2.1788889,0,0,2.1788808,-449.98427,-129.48324)" /><path
       sodipodi:type="star"
       style="display:inline;fill:none;fill-opacity:1;stroke:#ff00ff;stroke-width:0.464001;stroke-dasharray:none;stroke-opacity:1"
       id="path2-5-5-2-7-6-6-9-3-2-7-2"
       inkscape:flatsided="true"
       sodipodi:sides="6"
       sodipodi:cx="405.25177"
       sodipodi:cy="288.9021"
       sodipodi:r1="210.85258"
       sodipodi:r2="182.6037"
       sodipodi:arg1="0.52359878"
       sodipodi:arg2="1.0471976"
       inkscape:rounded="0"
       inkscape:randomized="0"
       d="M 587.85546,394.32839 405.25177,499.75468 222.64807,394.32839 222.64808,183.47581 405.25177,78.049515 587.85547,183.47581 Z"
       transform="matrix(2.1551756,0,0,2.1551676,-440.37441,-122.63245)" /><path
       sodipodi:type="star"
       style="display:inline;fill:none;fill-opacity:1;stroke:#ff00ff;stroke-width:0.469163;stroke-dasharray:none;stroke-opacity:1"
       id="path2-5-5-2-7-6-6-9-3-2-7-2-9"
       inkscape:flatsided="true"
       sodipodi:sides="6"
       sodipodi:cx="405.25177"
       sodipodi:cy="288.9021"
       sodipodi:r1="210.85258"
       sodipodi:r2="182.6037"
       sodipodi:arg1="0.52359878"
       sodipodi:arg2="1.0471976"
       inkscape:rounded="0"
       inkscape:randomized="0"
       d="M 587.85546,394.32839 405.25177,499.75468 222.64807,394.32839 222.64808,183.47581 405.25177,78.049515 587.85547,183.47581 Z"
       transform="matrix(2.1314622,0,0,2.1314543,-430.76451,-115.78162)" /><path
       sodipodi:type="star"
       style="display:inline;fill:none;fill-opacity:1;stroke:#ff00ff;stroke-width:0.474441;stroke-dasharray:none;stroke-opacity:1"
       id="path2-5-5-2-7-6-6-9-3-2-7-2-9-4"
       inkscape:flatsided="true"
       sodipodi:sides="6"
       sodipodi:cx="405.25177"
       sodipodi:cy="288.9021"
       sodipodi:r1="210.85258"
       sodipodi:r2="182.6037"
       sodipodi:arg1="0.52359878"
       sodipodi:arg2="1.0471976"
       inkscape:rounded="0"
       inkscape:randomized="0"
       d="M 587.85546,394.32839 405.25177,499.75468 222.64807,394.32839 222.64808,183.47581 405.25177,78.049515 587.85547,183.47581 Z"
       transform="matrix(2.1077489,0,0,2.1077411,-421.15466,-108.93083)" /><path
       sodipodi:type="star"
       style="display:inline;fill:none;fill-opacity:1;stroke:#ff00ff;stroke-width:0.479839;stroke-dasharray:none;stroke-opacity:1"
       id="path2-5-5-2-7-6-6-9-3-2-7-2-9-4-6"
       inkscape:flatsided="true"
       sodipodi:sides="6"
       sodipodi:cx="405.25177"
       sodipodi:cy="288.9021"
       sodipodi:r1="210.85258"
       sodipodi:r2="182.6037"
       sodipodi:arg1="0.52359878"
       sodipodi:arg2="1.0471976"
       inkscape:rounded="0"
       inkscape:randomized="0"
       d="M 587.85546,394.32839 405.25177,499.75468 222.64807,394.32839 222.64808,183.47581 405.25177,78.049515 587.85547,183.47581 Z"
       transform="matrix(2.0840355,0,0,2.0840278,-411.54476,-102.08001)" /><path
       sodipodi:type="star"
       style="display:inline;fill:none;fill-opacity:1;stroke:#ff00ff;stroke-width:0.485362;stroke-dasharray:none;stroke-opacity:1"
       id="path2-5-5-2-7-6-6-9-3-2-7-2-9-4-6-3"
       inkscape:flatsided="true"
       sodipodi:sides="6"
       sodipodi:cx="405.25177"
       sodipodi:cy="288.9021"
       sodipodi:r1="210.85258"
       sodipodi:r2="182.6037"
       sodipodi:arg1="0.52359878"
       sodipodi:arg2="1.0471976"
       inkscape:rounded="0"
       inkscape:randomized="0"
       d="M 587.85546,394.32839 405.25177,499.75468 222.64807,394.32839 222.64808,183.47581 405.25177,78.049515 587.85547,183.47581 Z"
       transform="matrix(2.0603222,0,0,2.0603146,-401.9349,-95.229214)" /><path
       sodipodi:type="star"
       style="display:inline;fill:none;fill-opacity:1;stroke:#ff00ff;stroke-width:0.491013;stroke-dasharray:none;stroke-opacity:1"
       id="path2-5-5-2-7-6-6-9-3-2-7-2-9-4-6-3-1"
       inkscape:flatsided="true"
       sodipodi:sides="6"
       sodipodi:cx="405.25177"
       sodipodi:cy="288.9021"
       sodipodi:r1="210.85258"
       sodipodi:r2="182.6037"
       sodipodi:arg1="0.52359878"
       sodipodi:arg2="1.0471976"
       inkscape:rounded="0"
       inkscape:randomized="0"
       d="M 587.85546,394.32839 405.25177,499.75468 222.64807,394.32839 222.64808,183.47581 405.25177,78.049515 587.85547,183.47581 Z"
       transform="matrix(2.0366088,0,0,2.0366013,-392.32501,-88.378392)" /><path
       sodipodi:type="star"
       style="display:inline;fill:none;fill-opacity:1;stroke:#ff00ff;stroke-width:0.496797;stroke-dasharray:none;stroke-opacity:1"
       id="path2-5-5-2-7-6-6-9-3-2-7-2-9-4-6-3-1-7"
       inkscape:flatsided="true"
       sodipodi:sides="6"
       sodipodi:cx="405.25177"
       sodipodi:cy="288.9021"
       sodipodi:r1="210.85258"
       sodipodi:r2="182.6037"
       sodipodi:arg1="0.52359878"
       sodipodi:arg2="1.0471976"
       inkscape:rounded="0"
       inkscape:randomized="0"
       d="M 587.85546,394.32839 405.25177,499.75468 222.64807,394.32839 222.64808,183.47581 405.25177,78.049515 587.85547,183.47581 Z"
       transform="matrix(2.0128955,0,0,2.0128881,-382.71515,-81.527599)" /><path
       sodipodi:type="star"
       style="display:inline;fill:none;fill-opacity:1;stroke:#ff00ff;stroke-width:0.502719;stroke-dasharray:none;stroke-opacity:1"
       id="path2-5-5-2-7-6-6-9-3-2-7-2-9-4-6-3-1-7-9"
       inkscape:flatsided="true"
       sodipodi:sides="6"
       sodipodi:cx="405.25177"
       sodipodi:cy="288.9021"
       sodipodi:r1="210.85258"
       sodipodi:r2="182.6037"
       sodipodi:arg1="0.52359878"
       sodipodi:arg2="1.0471976"
       inkscape:rounded="0"
       inkscape:randomized="0"
       d="M 587.85546,394.32839 405.25177,499.75468 222.64807,394.32839 222.64808,183.47581 405.25177,78.049515 587.85547,183.47581 Z"
       transform="matrix(1.9891821,0,0,1.9891748,-373.10525,-74.676777)" /><path
       sodipodi:type="star"
       style="display:inline;fill:none;fill-opacity:1;stroke:#ff00ff;stroke-width:0.508784;stroke-dasharray:none;stroke-opacity:1"
       id="path2-5-5-2-7-6-6-9-3-2-7-2-9-4-6-3-1-7-9-5"
       inkscape:flatsided="true"
       sodipodi:sides="6"
       sodipodi:cx="405.25177"
       sodipodi:cy="288.9021"
       sodipodi:r1="210.85258"
       sodipodi:r2="182.6037"
       sodipodi:arg1="0.52359878"
       sodipodi:arg2="1.0471976"
       inkscape:rounded="0"
       inkscape:randomized="0"
       d="M 587.85546,394.32839 405.25177,499.75468 222.64807,394.32839 222.64808,183.47581 405.25177,78.049515 587.85547,183.47581 Z"
       transform="matrix(1.9654688,0,0,1.9654616,-363.49539,-67.825983)" /><path
       sodipodi:type="star"
       style="display:inline;fill:none;fill-opacity:1;stroke:#ff00ff;stroke-width:0.514997;stroke-dasharray:none;stroke-opacity:1"
       id="path2-5-5-2-7-6-6-9-3-2-7-2-9-4-6-3-1-7-9-5-7"
       inkscape:flatsided="true"
       sodipodi:sides="6"
       sodipodi:cx="405.25177"
       sodipodi:cy="288.9021"
       sodipodi:r1="210.85258"
       sodipodi:r2="182.6037"
       sodipodi:arg1="0.52359878"
       sodipodi:arg2="1.0471976"
       inkscape:rounded="0"
       inkscape:randomized="0"
       d="M 587.85546,394.32839 405.25177,499.75468 222.64807,394.32839 222.64808,183.47581 405.25177,78.049515 587.85547,183.47581 Z"
       transform="matrix(1.9417554,0,0,1.9417483,-353.8855,-60.975161)" /><path
       sodipodi:type="star"
       style="display:inline;fill:none;fill-opacity:1;stroke:#ff00ff;stroke-width:0.521364;stroke-dasharray:none;stroke-opacity:1"
       id="path2-5-5-2-7-6-6-9-3-2-7-2-9-4-6-3-1-7-9-5-7-0"
       inkscape:flatsided="true"
       sodipodi:sides="6"
       sodipodi:cx="405.25177"
       sodipodi:cy="288.9021"
       sodipodi:r1="210.85258"
       sodipodi:r2="182.6037"
       sodipodi:arg1="0.52359878"
       sodipodi:arg2="1.0471976"
       inkscape:rounded="0"
       inkscape:randomized="0"
       d="M 587.85546,394.32839 405.25177,499.75468 222.64807,394.32839 222.64808,183.47581 405.25177,78.049515 587.85547,183.47581 Z"
       transform="matrix(1.9180421,0,0,1.9180351,-344.27564,-54.124368)" /><path
       sodipodi:type="star"
       style="display:inline;fill:none;fill-opacity:1;stroke:#ff00ff;stroke-width:0.52789;stroke-dasharray:none;stroke-opacity:1"
       id="path2-5-5-2-7-6-6-9-3-2-7-2-9-4-6-3-1-7-9-5-7-0-8"
       inkscape:flatsided="true"
       sodipodi:sides="6"
       sodipodi:cx="405.25177"
       sodipodi:cy="288.9021"
       sodipodi:r1="210.85258"
       sodipodi:r2="182.6037"
       sodipodi:arg1="0.52359878"
       sodipodi:arg2="1.0471976"
       inkscape:rounded="0"
       inkscape:randomized="0"
       d="M 587.85546,394.32839 405.25177,499.75468 222.64807,394.32839 222.64808,183.47581 405.25177,78.049515 587.85547,183.47581 Z"
       transform="matrix(1.8943287,0,0,1.8943218,-334.66574,-47.273546)" /><path
       sodipodi:type="star"
       style="display:inline;fill:none;fill-opacity:1;stroke:#ff00ff;stroke-width:0.534582;stroke-dasharray:none;stroke-opacity:1"
       id="path2-5-5-2-7-6-6-9-3-2-7-2-9-4-6-3-1-7-9-5-7-0-8-1"
       inkscape:flatsided="true"
       sodipodi:sides="6"
       sodipodi:cx="405.25177"
       sodipodi:cy="288.9021"
       sodipodi:r1="210.85258"
       sodipodi:r2="182.6037"
       sodipodi:arg1="0.52359878"
       sodipodi:arg2="1.0471976"
       inkscape:rounded="0"
       inkscape:randomized="0"
       d="M 587.85546,394.32839 405.25177,499.75468 222.64807,394.32839 222.64808,183.47581 405.25177,78.049515 587.85547,183.47581 Z"
       transform="matrix(1.8706154,0,0,1.8706086,-325.05589,-40.422752)" /><path
       sodipodi:type="star"
       style="display:inline;fill:none;fill-opacity:1;stroke:#ff00ff;stroke-width:0.541446;stroke-dasharray:none;stroke-opacity:1"
       id="path2-5-5-2-7-6-6-9-3-2-7-2-9-4-6-3-1-7-9-5-7-0-8-1-0"
       inkscape:flatsided="true"
       sodipodi:sides="6"
       sodipodi:cx="405.25177"
       sodipodi:cy="288.9021"
       sodipodi:r1="210.85258"
       sodipodi:r2="182.6037"
       sodipodi:arg1="0.52359878"
       sodipodi:arg2="1.0471976"
       inkscape:rounded="0"
       inkscape:randomized="0"
       d="M 587.85546,394.32839 405.25177,499.75468 222.64807,394.32839 222.64808,183.47581 405.25177,78.049515 587.85547,183.47581 Z"
       transform="matrix(1.846902,0,0,1.8468953,-315.44599,-33.57193)" /><path
       sodipodi:type="star"
       style="display:inline;fill:none;fill-opacity:1;stroke:#ff00ff;stroke-width:0.548488;stroke-dasharray:none;stroke-opacity:1"
       id="path2-5-5-2-7-6-6-9-3-2-7-2-9-4-6-3-1-7-9-5-7-0-8-1-0-2"
       inkscape:flatsided="true"
       sodipodi:sides="6"
       sodipodi:cx="405.25177"
       sodipodi:cy="288.9021"
       sodipodi:r1="210.85258"
       sodipodi:r2="182.6037"
       sodipodi:arg1="0.52359878"
       sodipodi:arg2="1.0471976"
       inkscape:rounded="0"
       inkscape:randomized="0"
       d="M 587.85546,394.32839 405.25177,499.75468 222.64807,394.32839 222.64808,183.47581 405.25177,78.049515 587.85547,183.47581 Z"
       transform="matrix(1.8231887,0,0,1.8231821,-305.83613,-26.721137)" /><path
       sodipodi:type="star"
       style="display:inline;fill:none;fill-opacity:1;stroke:#ff00ff;stroke-width:0.555716;stroke-dasharray:none;stroke-opacity:1"
       id="path2-5-5-2-7-6-6-9-3-2-7-2-9-4-6-3-1-7-9-5-7-0-8-1-0-2-9"
       inkscape:flatsided="true"
       sodipodi:sides="6"
       sodipodi:cx="405.25177"
       sodipodi:cy="288.9021"
       sodipodi:r1="210.85258"
       sodipodi:r2="182.6037"
       sodipodi:arg1="0.52359878"
       sodipodi:arg2="1.0471976"
       inkscape:rounded="0"
       inkscape:randomized="0"
       d="M 587.85546,394.32839 405.25177,499.75468 222.64807,394.32839 222.64808,183.47581 405.25177,78.049515 587.85547,183.47581 Z"
       transform="matrix(1.7994753,0,0,1.7994688,-296.22624,-19.870315)" /><path
       sodipodi:type="star"
       style="display:inline;fill:none;fill-opacity:1;stroke:#ff00ff;stroke-width:0.563137;stroke-dasharray:none;stroke-opacity:1"
       id="path2-5-5-2-7-6-6-9-3-2-7-2-9-4-6-3-1-7-9-5-7-0-8-1-0-2-9-8"
       inkscape:flatsided="true"
       sodipodi:sides="6"
       sodipodi:cx="405.25177"
       sodipodi:cy="288.9021"
       sodipodi:r1="210.85258"
       sodipodi:r2="182.6037"
       sodipodi:arg1="0.52359878"
       sodipodi:arg2="1.0471976"
       inkscape:rounded="0"
       inkscape:randomized="0"
       d="M 587.85546,394.32839 405.25177,499.75468 222.64807,394.32839 222.64808,183.47581 405.25177,78.049515 587.85547,183.47581 Z"
       transform="matrix(1.775762,0,0,1.7757556,-286.61638,-13.019522)" /><path
       sodipodi:type="star"
       style="display:inline;fill:none;fill-opacity:1;stroke:#ff00ff;stroke-width:0.570759;stroke-dasharray:none;stroke-opacity:1"
       id="path2-5-5-2-7-6-6-9-3-2-7-2-9-4-6-3-1-7-9-5-7-0-8-1-0-2-9-8-6"
       inkscape:flatsided="true"
       sodipodi:sides="6"
       sodipodi:cx="405.25177"
       sodipodi:cy="288.9021"
       sodipodi:r1="210.85258"
       sodipodi:r2="182.6037"
       sodipodi:arg1="0.52359878"
       sodipodi:arg2="1.0471976"
       inkscape:rounded="0"
       inkscape:randomized="0"
       d="M 587.85546,394.32839 405.25177,499.75468 222.64807,394.32839 222.64808,183.47581 405.25177,78.049515 587.85547,183.47581 Z"
       transform="matrix(1.7520486,0,0,1.7520423,-277.00648,-6.1686994)" /><path
       sodipodi:type="star"
       style="display:inline;fill:none;fill-opacity:1;stroke:#ff00ff;stroke-width:0.57859;stroke-dasharray:none;stroke-opacity:1"
       id="path2-5-5-2-7-6-6-9-3-2-7-2-9-4-6-3-1-7-9-5-7-0-8-1-0-2-9-8-6-1"
       inkscape:flatsided="true"
       sodipodi:sides="6"
       sodipodi:cx="405.25177"
       sodipodi:cy="288.9021"
       sodipodi:r1="210.85258"
       sodipodi:r2="182.6037"
       sodipodi:arg1="0.52359878"
       sodipodi:arg2="1.0471976"
       inkscape:rounded="0"
       inkscape:randomized="0"
       d="M 587.85546,394.32839 405.25177,499.75468 222.64807,394.32839 222.64808,183.47581 405.25177,78.049515 587.85547,183.47581 Z"
       transform="matrix(1.7283353,0,0,1.7283291,-267.39662,0.68209382)" /><path
       sodipodi:type="star"
       style="display:inline;fill:none;fill-opacity:1;stroke:#ff00ff;stroke-width:0.586639;stroke-dasharray:none;stroke-opacity:1"
       id="path2-5-5-2-7-6-6-9-3-2-7-2-9-4-6-3-1-7-9-5-7-0-8-1-0-2-9-8-6-1-9"
       inkscape:flatsided="true"
       sodipodi:sides="6"
       sodipodi:cx="405.25177"
       sodipodi:cy="288.9021"
       sodipodi:r1="210.85258"
       sodipodi:r2="182.6037"
       sodipodi:arg1="0.52359878"
       sodipodi:arg2="1.0471976"
       inkscape:rounded="0"
       inkscape:randomized="0"
       d="M 587.85546,394.32839 405.25177,499.75468 222.64807,394.32839 222.64808,183.47581 405.25177,78.049515 587.85547,183.47581 Z"
       transform="matrix(1.7046219,0,0,1.7046158,-257.78673,7.532916)" /><path
       sodipodi:type="star"
       style="display:inline;fill:none;fill-opacity:1;stroke:#ff00ff;stroke-width:0.594915;stroke-dasharray:none;stroke-opacity:1"
       id="path2-5-5-2-7-6-6-9-3-2-7-2-9-4-6-3-1-7-9-5-7-0-8-1-0-2-9-8-6-1-9-7"
       inkscape:flatsided="true"
       sodipodi:sides="6"
       sodipodi:cx="405.25177"
       sodipodi:cy="288.9021"
       sodipodi:r1="210.85258"
       sodipodi:r2="182.6037"
       sodipodi:arg1="0.52359878"
       sodipodi:arg2="1.0471976"
       inkscape:rounded="0"
       inkscape:randomized="0"
       d="M 587.85546,394.32839 405.25177,499.75468 222.64807,394.32839 222.64808,183.47581 405.25177,78.049515 587.85547,183.47581 Z"
       transform="matrix(1.6809086,0,0,1.6809026,-248.17687,14.383709)" /><path
       sodipodi:type="star"
       style="display:inline;fill:none;fill-opacity:1;stroke:#ff00ff;stroke-width:0.603428;stroke-dasharray:none;stroke-opacity:1"
       id="path2-5-5-2-7-6-6-9-3-2-7-2-9-4-6-3-1-7-9-5-7-0-8-1-0-2-9-8-6-1-9-7-5"
       inkscape:flatsided="true"
       sodipodi:sides="6"
       sodipodi:cx="405.25177"
       sodipodi:cy="288.9021"
       sodipodi:r1="210.85258"
       sodipodi:r2="182.6037"
       sodipodi:arg1="0.52359878"
       sodipodi:arg2="1.0471976"
       inkscape:rounded="0"
       inkscape:randomized="0"
       d="M 587.85546,394.32839 405.25177,499.75468 222.64807,394.32839 222.64808,183.47581 405.25177,78.049515 587.85547,183.47581 Z"
       transform="matrix(1.6571952,0,0,1.6571893,-238.56697,21.234531)" /></g></svg>
